<svg xmlns="http://www.w3.org/2000/svg" viewBox="0 0 512 512">
	<radialGradient id="SVGdEZdR6Go" cx="-678.673" cy="759.63" r="14.222" gradientTransform="matrix(47.5733 0 0 -20.1494 32779.156 15818.071)" gradientUnits="userSpaceOnUse">
		<stop offset=".18" stop-color="#1657f4" />
		<stop offset=".575" stop-color="#0036c4" />
	</radialGradient>
	<path fill="url(#SVGdEZdR6Go)" d="m78.2 385.3l199.1-243.1l227.6 157.9v162.1c0 27.5-22.3 49.8-49.8 49.8H163.6c-47.1 0-85.3-38.2-85.3-85.3v-41.4z" />
	<linearGradient id="SVGSMpbjePO" x1="78.222" x2="404.974" y1="243.778" y2="243.778" gradientTransform="matrix(1 0 0 -1 0 514)" gradientUnits="userSpaceOnUse">
		<stop offset="0" stop-color="#66c0ff" />
		<stop offset=".256" stop-color="#0094f0" />
	</linearGradient>
	<path fill="url(#SVGSMpbjePO)" d="M78.2 213.9c0-35.3 28.7-64 64-64h290l72.7-36.1v177.8c0 27.5-22.3 49.8-49.8 49.8H163.6c-47.1 0-85.3 38.2-85.3 85.3V213.9z" />
	<radialGradient id="SVGuA81AcID" cx="-720.742" cy="812.452" r="14.222" gradientTransform="rotate(-46.454 -57475.835 53509.8)scale(-29.3648 72.3194)" gradientUnits="userSpaceOnUse">
		<stop offset=".14" stop-color="#d471ff" />
		<stop offset=".831" stop-color="#509df5" stop-opacity="0" />
	</radialGradient>
	<path fill="url(#SVGuA81AcID)" fill-opacity=".6" d="M78.2 213.9c0-35.3 28.7-64 64-64h290l72.7-36.1v177.8c0 27.5-22.3 49.8-49.8 49.8H163.6c-47.1 0-85.3 38.2-85.3 85.3V213.9z" />
	<radialGradient id="SVGwsK8jcCH" cx="-671.619" cy="807.929" r="14.222" gradientTransform="matrix(0 18.6154 101.647 0 -81681.047 12832.857)" gradientUnits="userSpaceOnUse">
		<stop offset=".283" stop-color="#4f006f" stop-opacity="0" />
		<stop offset="1" stop-color="#4f006f" />
	</radialGradient>
	<path fill="url(#SVGwsK8jcCH)" fill-opacity=".1" d="M78.2 213.9c0-35.3 28.7-64 64-64h290l72.7-36.1v177.8c0 27.5-22.3 49.8-49.8 49.8H163.6c-47.1 0-85.3 38.2-85.3 85.3V213.9z" />
	<linearGradient id="SVGYtFwBbYO" x1="78.274" x2="504.824" y1="389.115" y2="382.07" gradientTransform="matrix(1 0 0 -1 0 514)" gradientUnits="userSpaceOnUse">
		<stop offset="0" stop-color="#9deaff" />
		<stop offset=".201" stop-color="#3bd5ff" />
	</linearGradient>
	<path fill="url(#SVGYtFwBbYO)" d="M78.2 85.3C78.2 38.2 116.4 0 163.6 0h291.6C482.7 0 505 22.3 505 49.8v71.1c0 27.5-22.3 49.8-49.8 49.8H163.6c-47.1 0-85.3 38.2-85.3 85.3V85.3z" />
	<radialGradient id="SVGuGPCacEg" cx="-739.396" cy="804.688" r="14.222" gradientTransform="rotate(166.855 -13927.087 -27133.373)scale(29.495 -70.6435)" gradientUnits="userSpaceOnUse">
		<stop offset=".061" stop-color="#e4a7fe" />
		<stop offset=".539" stop-color="#e4a7fe" stop-opacity="0" />
	</radialGradient>
	<path fill="url(#SVGuGPCacEg)" fill-opacity=".8" d="M78.2 85.3C78.2 38.2 116.4 0 163.6 0h291.6C482.7 0 505 22.3 505 49.8v71.1c0 27.5-22.3 49.8-49.8 49.8H163.6c-47.1 0-85.3 38.2-85.3 85.3V85.3z" />
	<radialGradient id="SVGKCYMVcVr" cx="-665.253" cy="803.385" r="14.222" gradientTransform="matrix(16 16 16 -16 -2202.999 23739.98)" gradientUnits="userSpaceOnUse">
		<stop offset=".081" stop-color="#367af2" />
		<stop offset=".872" stop-color="#001a8f" />
	</radialGradient>
	<path fill="url(#SVGKCYMVcVr)" d="M53.3 241.8h135.1c25.5 0 46.2 20.7 46.2 46.2v135.1c0 25.5-20.7 46.2-46.2 46.2H53.3c-25.5 0-46.2-20.7-46.2-46.2V288c0-25.5 20.7-46.2 46.2-46.2" />
	<radialGradient id="SVGwfjWZcMB" cx="-646.865" cy="860.603" r="14.222" gradientTransform="matrix(0 11.2 12.765 0 -10864.705 7623.2)" gradientUnits="userSpaceOnUse">
		<stop offset=".587" stop-color="#2763e5" stop-opacity="0" />
		<stop offset=".974" stop-color="#58aafe" />
	</radialGradient>
	<path fill="url(#SVGwfjWZcMB)" fill-opacity=".65" d="M53.3 241.8h135.1c25.5 0 46.2 20.7 46.2 46.2v135.1c0 25.5-20.7 46.2-46.2 46.2H53.3c-25.5 0-46.2-20.7-46.2-46.2V288c0-25.5 20.7-46.2 46.2-46.2" />
	<path fill="#fff" d="m198.9 290.5l-28 130h-33.5l-16.5-78l-17.3 78H69.8l-26.9-130h27.6l16.6 85.8l16.5-85.8h33.8l17.3 85.8l16.2-85.8z" />
</svg>
